<?xml version="1.0" standalone="no"?><!DOCTYPE svg PUBLIC "-//W3C//DTD SVG 1.1//EN" "http://www.w3.org/Graphics/SVG/1.1/DTD/svg11.dtd"><svg t="1553592826169" class="icon" style="" viewBox="0 0 1024 1024" version="1.1" xmlns="http://www.w3.org/2000/svg" p-id="7562" data-spm-anchor-id="a313x.7781069.0.i5" xmlns:xlink="http://www.w3.org/1999/xlink" width="32" height="32"><defs><style type="text/css"></style></defs><path d="M268.8 411.733333c-12.8 0-23.466667-6.4-29.866667-19.2-12.8-29.866667-19.2-64-19.2-96 0-145.066667 128-262.4 283.733334-262.4s283.733333 117.333333 283.733333 262.4c0 27.733333-4.266667 55.466667-14.933333 83.2-6.4 17.066667-23.466667 25.6-40.533334 19.2-17.066667-6.4-25.6-23.466667-19.2-40.533333 6.4-19.2 10.666667-40.533333 10.666667-61.866667 0-108.8-98.133333-198.4-219.733333-198.4-121.6 0-219.733333 89.6-219.733334 198.4 0 25.6 4.266667 49.066667 14.933334 70.4 6.4 17.066667 0 34.133333-17.066667 42.666667-4.266667 0-8.533333 2.133333-12.8 2.133333z" fill="#8a8a8a" p-id="7563"></path><path d="M503.466667 953.6c-145.066667 0-253.866667-59.733333-253.866667-140.8 0-66.133333 72.533333-119.466667 185.6-134.4 17.066667-2.133333 34.133333 10.666667 36.266667 27.733333 2.133333 17.066667-10.666667 34.133333-27.733334 36.266667-83.2 12.8-132.266667 46.933333-132.266666 72.533333 0 32 72.533333 76.8 189.866666 76.8s189.866667-44.8 189.866667-76.8c0-23.466667-38.4-53.333333-113.066667-68.266666-17.066667-4.266667-27.733333-21.333333-25.6-38.4 4.266667-17.066667 21.333333-27.733333 38.4-25.6 100.266667 19.2 164.266667 70.4 164.266667 132.266666 2.133333 78.933333-106.666667 138.666667-251.733333 138.666667z" fill="#ffc43d" p-id="7564" data-spm-anchor-id="a313x.7781069.0.i7" class="selected"></path><path d="M503.466667 812.8c-23.466667 0-46.933333-10.666667-59.733334-27.733333l-2.133333-4.266667-200.533333-386.133333c-8.533333-14.933333-2.133333-34.133333 12.8-42.666667 14.933333-8.533333 34.133333-2.133333 42.666666 12.8L497.066667 746.666667h14.933333l202.666667-394.666667c8.533333-14.933333 27.733333-21.333333 42.666666-12.8s21.333333 27.733333 12.8 42.666667l-209.066666 401.066666c-10.666667 19.2-32 29.866667-57.6 29.866667z" fill="#8a8a8a" p-id="7565"></path><path d="M505.6 430.933333c-66.133333 0-119.466667-53.333333-119.466667-119.466666S439.466667 192 505.6 192c66.133333 0 119.466667 53.333333 119.466667 119.466667s-53.333333 119.466667-119.466667 119.466666z m0-172.8c-29.866667 0-55.466667 25.6-55.466667 55.466667s25.6 55.466667 55.466667 55.466667c29.866667 0 55.466667-25.6 55.466667-55.466667s-23.466667-55.466667-55.466667-55.466667z" fill="#ffc43d" p-id="7566" data-spm-anchor-id="a313x.7781069.0.i6" class="selected"></path></svg>